<svg width="28" height="25" viewBox="0 0 28 25" fill="none" xmlns="http://www.w3.org/2000/svg">
<g clip-path="url(#clip0_2182_1053)">
<path fill-rule="evenodd" clip-rule="evenodd" d="M5.68924 8.98285L13.9708 24.9712L0.0510254 8.98285H5.68924Z" fill="#EA6C00"/>
<path fill-rule="evenodd" clip-rule="evenodd" d="M22.2547 8.98285L13.9732 24.9712L27.8929 8.98285H22.2547Z" fill="#EA6C00"/>
<path fill-rule="evenodd" clip-rule="evenodd" d="M5.68896 8.98285H22.252L13.9705 24.9712L5.68896 8.98285Z" fill="#FDAD00"/>
<path fill-rule="evenodd" clip-rule="evenodd" d="M13.9705 0.122101L6.12485 0.940124L5.68896 8.98286L13.9705 0.122101Z" fill="#FDD231"/>
<path fill-rule="evenodd" clip-rule="evenodd" d="M13.9704 0.122101L21.8161 0.940124L22.252 8.98286L13.9704 0.122101Z" fill="#FDD231"/>
<path fill-rule="evenodd" clip-rule="evenodd" d="M27.8929 8.98286L21.8188 0.940125L22.2547 8.98286H27.8929Z" fill="#FDAD00"/>
<path fill-rule="evenodd" clip-rule="evenodd" d="M0.0510254 8.98286L6.12513 0.940125L5.68924 8.98286H0.0510254Z" fill="#FDAD00"/>
<path fill-rule="evenodd" clip-rule="evenodd" d="M13.9705 0.122101L5.68896 8.98286H22.252L13.9705 0.122101Z" fill="#FEEEB7"/>
</g>
<defs>
<clipPath id="clip0_2182_1053">
<rect width="28" height="25" fill="white"/>
</clipPath>
</defs>
</svg>
